inDegrees=no
num_controls=7
num_derivatives=13
num_iterations=18
num_multipliers=7
num_parameters=0
num_slacks=7
num_states=26
objective=0.463031
objective_accelerations=0.000000
objective_balance=0.001477
objective_effort=0.014342
objective_height=0.441383
objective_ligament=0.005829
solver_duration=309.374046
status=Solve_Succeeded
success=true
DataType=double
version=3
OpenSimVersion=4.5
endheader
time	/jointset/ground_pelvis/pelvis_tilt/value	/jointset/ground_pelvis/pelvis_tx/value	/jointset/ground_pelvis/pelvis_ty/value	/jointset/hip_l/hip_flexion_l/value	/jointset/hip_l/hip_adduction_l/value	/jointset/hip_l/hip_rotation_l/value	/jointset/back/lumbar_extension/value	/jointset/patellofemoral_l/patellar_flexion_l/value	/jointset/knee_l/knee_flexion_l/value	/jointset/knee_l/knee_adduction_l/value	/jointset/knee_l/knee_rotation_l/value	/jointset/ankle_l/ankle_angle_l/value	/jointset/subtalar_l/subtalar_angle_l/value	/jointset/ground_pelvis/pelvis_tilt/speed	/jointset/ground_pelvis/pelvis_tx/speed	/jointset/ground_pelvis/pelvis_ty/speed	/jointset/hip_l/hip_flexion_l/speed	/jointset/hip_l/hip_adduction_l/speed	/jointset/hip_l/hip_rotation_l/speed	/jointset/back/lumbar_extension/speed	/jointset/patellofemoral_l/patellar_flexion_l/speed	/jointset/knee_l/knee_flexion_l/speed	/jointset/knee_l/knee_adduction_l/speed	/jointset/knee_l/knee_rotation_l/speed	/jointset/ankle_l/ankle_angle_l/speed	/jointset/subtalar_l/subtalar_angle_l/speed	/forceset/tau_hip_flexion_l	/forceset/tau_hip_adduction_l	/forceset/tau_hip_rotation_l	/forceset/tau_knee_flexion_l	/forceset/tau_ankle_angle_l	/forceset/tau_subtalar_angle_l	/forceset/tau_lumbar_extension	lambda_cid13_p0	lambda_cid13_p1	lambda_cid13_p2	lambda_cid13_p3	lambda_cid13_p4	lambda_cid13_p5	lambda_cid14_p0	/jointset/ground_pelvis/pelvis_tilt/accel	/jointset/ground_pelvis/pelvis_tx/accel	/jointset/ground_pelvis/pelvis_ty/accel	/jointset/hip_l/hip_flexion_l/accel	/jointset/hip_l/hip_adduction_l/accel	/jointset/hip_l/hip_rotation_l/accel	/jointset/back/lumbar_extension/accel	/jointset/patellofemoral_l/patellar_flexion_l/accel	/jointset/knee_l/knee_flexion_l/accel	/jointset/knee_l/knee_adduction_l/accel	/jointset/knee_l/knee_rotation_l/accel	/jointset/ankle_l/ankle_angle_l/accel	/jointset/subtalar_l/subtalar_angle_l/accel	gamma_cid13_p0	gamma_cid13_p1	gamma_cid13_p2	gamma_cid13_p3	gamma_cid13_p4	gamma_cid13_p5	gamma_cid14_p0
0.5	-0.215111380476108	0.07871847737152389	0.8654568292072128	0.5526337911274741	-0.297114156887042	-0.3052718999407398	-0.149116450158143	0.3469711569015058	0.3469711569015029	0.001197518594628454	0.001852974060920039	0.08694893650114999	0.1236940436492265	-0.4486371324225215	0.00888942845320843	-0.08530566910545628	0.6985515888127969	-0.1068300101857284	0.1019220940635544	-0.06932421205954815	0.4469331579349323	0.4469331579349317	-0.06517198807662718	-0.03201843397718369	0.1937526714694559	-0.001688795214174579	-0.1002046013776118	0.1136439115240221	-0.0007603894519363951	-0.0721441792467136	-0.04808309950046441	-0.01967783395999739	0.112157176139545	-51.66636355981549	15.02212030855108	0.2051253129314872	16.19295010007105	-546.5119059162918	-23.89500680790483	-37.86447342959109	0.7611164351948165	-0.1003911542782802	0.08456690435114241	-1.038814423854865	0.2202158051990958	-0.1687412184808399	0.1532214057230125	-0.7273365645058322	-0.7273365645058322	0.1805740249217449	-0.01215617059002695	-0.4103654231656055	-0.006690157975004494	-3.633157069564106e-09	2.150780870428808e-08	5.059858232704368e-09	8.573684232493135e-09	2.640443600702971e-08	1.203261409808144e-08	-2.338920034937968e-09
0.51	-0.2195596258030114	0.07880245727836505	0.864608093296793	0.5595669710903975	-0.2981713985168401	-0.3042611795046498	-0.1498017104715722	0.3514037908605652	0.3514037908605459	0.0005548348889472103	0.001532292233745154	0.08886591231040633	0.1236768598438337	-0.4409670649497347	0.007918731081115422	-0.08442647478388557	0.687988704560283	-0.1046126658024869	0.1002025552918256	-0.06773562845277718	0.4395370439722589	0.4395370439722586	-0.06336871803097065	-0.03211467227965915	0.189632426421242	-0.001747437817438262	-0.1028853964393785	0.114906054835638	-0.000854179275718756	-0.07102188451226547	-0.05057379441873922	-0.01950950151468407	0.1140958243216972	-52.45984138343996	15.02292025198322	0.2792725152854155	16.16525203992307	-547.0165137752904	-23.72029889837931	-37.81349093549945	0.7766810825528027	-0.09358061284042651	0.09185681085549638	-1.079380993193608	0.2233388797303419	-0.1764753978938638	0.1605101642155636	-0.7542368416549902	-0.754236841654958	0.1796119868187677	-0.007868581217507758	-0.4143637997976319	-0.005375808240093065	-3.248799916708163e-09	2.016037677615386e-08	4.065207798201621e-09	8.457105486838458e-09	2.753876455538343e-08	1.226665125814009e-08	-2.227533032061858e-09
0.52	-0.2239298246193563	0.07887709589465162	0.8637686015525485	0.5663916510973458	-0.2992062976778454	-0.3032682374945393	-0.1504713182837213	0.3557607660740896	0.3557607660740844	-6.993441783125672e-05	0.00121074583933694	0.09074138371834931	0.1236591047130593	-0.433027830307639	0.00702117034229126	-0.08345683587039038	0.6768515976179994	-0.1023615164255063	0.09836640886510728	-0.06619371180351646	0.4318014088293108	0.4318014088293108	-0.06158910828807577	-0.03219134742778046	0.185451791207094	-0.001803060290227297	-0.105566191500995	0.116168198147281	-0.0009479690995933039	-0.06989958977773535	-0.05306448933697494	-0.0193411690693117	0.1160344725039348	-53.25786398462802	15.0240744832508	0.3538675344230433	16.14800756090899	-547.5874840751542	-23.55555693810141	-37.76199999449893	0.8149498690565492	-0.08576382762449349	0.1026558227360294	-1.153658961808825	0.226976803946873	-0.1920627494787505	0.1438880142209519	-0.7952408005606852	-0.7952408005606852	0.1758419643693505	-0.008243539719244117	-0.4224434563523475	-0.006086131880099813	-2.91379162229851e-09	1.943590765639566e-08	2.992514707041422e-09	8.462699768945472e-09	2.877244802882093e-08	1.281492555353148e-08	-2.122595892078088e-09
0.53	-0.2282194084523191	0.07894311790330186	0.8629392357455621	0.5731023041403519	-0.3002185303716361	-0.3022942282039519	-0.1511256822084302	0.3600388226674232	0.3600388226674185	-0.0006769995843317648	0.000888511933111547	0.09257479792461137	0.1236408260068492	-0.4248517452542224	0.006195010714521063	-0.08240287437361503	0.6651978540475029	-0.1000809310215325	0.09641841167725343	-0.06468607256571729	0.4237641533948617	0.4237641533948615	-0.05982699612718891	-0.03225244598730566	0.181225327061881	-0.001851133017309508	-0.1080576940463451	0.1172975769673476	-0.001032222323711732	-0.06898917928044863	-0.05524626444119208	-0.01915751784247218	0.1178297024010932	-53.95008818369458	15.01272774945716	0.4159758883465896	16.07164358286451	-548.0557499923594	-23.40007685112819	-37.71011752312387	0.824515649903901	-0.07927343810938524	0.1087898702026121	-1.183406043159401	0.2292112253178288	-0.1987231524979242	0.1531519644713051	-0.8148309675514247	-0.8148309675514506	0.1759379552255929	-0.004594920421202166	-0.4236064872918336	-0.003938880572795338	-2.603717441875074e-09	1.883771137255962e-08	1.897911275767593e-09	8.47658108518509e-09	2.979492387755392e-08	1.336310314101316e-08	-2.010187113221179e-09
